<?xml version="1.0" encoding="utf-8"?>
<svg viewBox="0 0 132.429 50.387" xmlns="http://www.w3.org/2000/svg">
  <defs>
    <filter id="editing-vr">
      <feFlood flood-color="#f00" flood-opacity="0.7" result="c1"/>
      <feFlood flood-color="#00f" flood-opacity="0.7" result="c3"/>
      <feComposite operator="in" in="c1" in2="SourceAlpha" result="text-c1"/>
      <feComposite operator="in" in="c3" in2="SourceAlpha" result="text-c3"/>
      <feOffset in="text-c1" dx="5" dy="-1" result="text1"/>
      <feOffset in="text-c3" dx="-5" dy="1" result="text3"/>
      <feBlend in="SourceGraphic" in2="text1" mode="multiply" result="text4"/>
      <feBlend in="text4" in2="text3" mode="multiply"/>
    </filter>
  </defs>
  <g transform="matrix(1, 0, 0, 1, -127.906975, -123.385056)">
    <g filter="url(#editing-vr)" transform="matrix(1, 0, 0, 1, -59.469444, 73.106369)">
      <g transform="translate(188.35892486572266, 97.43000030517578)">
        <path d="M7.17 0L10.88-18.82L10.88-18.82Q9.02-36.16 2.50-39.87L2.50-39.87L2.50-39.87Q3.84-41.54 6.02-42.46L6.02-42.46L6.02-42.46Q8.19-43.39 10.82-43.39L10.82-43.39L10.82-43.39Q13.44-43.39 15.42-42.46L15.42-42.46L15.42-42.46Q17.41-41.54 18.69-39.55L18.69-39.55L18.69-39.55Q21.12-35.78 21.12-26.75L21.12-26.75L21.12-22.14L21.12-22.14Q24.96-33.41 28.80-38.27L28.80-38.27L28.80-38.27Q32.70-43.26 37.57-43.26L37.57-43.26L37.57-43.26Q39.49-43.26 40.77-42.27L40.77-42.27L40.77-42.27Q42.05-41.28 42.69-39.81L42.69-39.81L42.69-39.81Q37.76-37.63 33.02-31.36L33.02-31.36L33.02-31.36Q28.29-25.09 25.22-16.32L25.22-16.32L21.44 0L7.17 0ZM39.17-15.62L39.17-15.62L39.17-15.62Q39.17-27.71 45.44-35.33L45.44-35.33L45.44-35.33Q52.10-43.58 63.68-43.58L63.68-43.58L63.68-43.58Q72.06-43.58 76.29-39.52L76.29-39.52L76.29-39.52Q80.51-35.46 80.51-26.88L80.51-26.88L80.51-26.88Q80.51-13.82 73.86-6.21L73.86-6.21L73.86-6.21Q67.26 1.28 56.19 1.28L56.19 1.28L56.19 1.28Q47.55 1.28 43.36-3.04L43.36-3.04L43.36-3.04Q39.17-7.36 39.17-15.62ZM56-28.86L56-28.86L56-28.86Q53.12-17.34 53.12-8.26L53.12-8.26L53.12-8.26Q53.12-6.08 53.86-4.67L53.86-4.67L53.86-4.67Q54.59-3.26 56.54-3.26L56.54-3.26L56.54-3.26Q58.50-3.26 59.71-4.19L59.71-4.19L59.71-4.19Q60.93-5.12 61.89-7.23L61.89-7.23L61.89-7.23Q63.42-10.69 64.86-18.02L64.86-18.02L64.86-18.02Q66.30-25.34 66.43-28.38L66.43-28.38L66.43-28.38Q66.56-31.42 66.56-33.73L66.56-33.73L66.56-33.73Q66.56-36.03 65.86-37.50L65.86-37.50L65.86-37.50Q65.15-38.98 63.26-38.98L63.26-38.98L63.26-38.98Q61.38-38.98 60.10-37.82L60.10-37.82L60.10-37.82Q57.73-35.65 56-28.86ZM85.25-39.68L85.25-39.68L85.25-39.68Q87.10-43.52 92.26-43.52L92.26-43.52L92.26-43.52Q97.41-43.52 99.81-40.54L99.81-40.54L99.81-40.54Q102.21-37.57 102.21-30.72L102.21-30.72L102.21-7.87L117.76-42.18L125.38-42.18L105.47 0L90.50 0L88.58-30.72L88.58-30.72Q88.38-34.11 87.46-36.42L87.46-36.42L87.46-36.42Q86.53-38.72 85.25-39.68Z" fill="#444"/>
      </g>
    </g>
  </g>
</svg>