<svg xmlns="http://www.w3.org/2000/svg" style="background: rgba(0, 0, 0, 0);" preserveAspectRatio="xMidYMid" viewBox="138.98 54.23 220.63 74.51"><defs><linearGradient id="editing-sticker-gradient" x1="0.27018666706430666" y1="0.6928362829059619" x2="0.7298133329356933" y2="0.3071637170940381"><stop offset="0" stop-color="#fd9"/><stop offset="1" stop-color="#9df"/></linearGradient><filter id="editing-sticker" x="-100%" y="-100%" width="300%" height="300%"><feMorphology operator="erode" radius="1" in="SourceAlpha" result="alpha-erode"/><feConvolveMatrix order="3,3" divisor="1" kernelMatrix="0 1 0 1 1 1 0 1 0" in="alpha-erode" result="alpha-round"/><feMorphology operator="dilate" radius="3.5" in="alpha-round" result="dilate-shadow"/><feGaussianBlur in="dilate-shadow" stdDeviation="1.5" result="shadow"/><feFlood flood-color="#fff" result="flood-sticker"/><feComposite operator="in" in="flood-sticker" in2="alpha-round" result="comp-sticker"/><feMorphology operator="dilate" radius="3" in="comp-sticker" result="morph-sticker"/><feConvolveMatrix order="3,3" divisor="1" kernelMatrix="0 1 0 1 1 1 0 1 0" in="morph-sticker" result="sticker"/><feMerge><feMergeNode in="shadow"/><feMergeNode in="sticker"/><feMergeNode in="SourceGraphic"/></feMerge></filter></defs><g filter="url(#editing-sticker)"><g transform="translate(140.63912600278854, 111.2549991607666)"><path d="M21.94-36.99L33.98-36.99L33.98-36.99Q32.45-34.46 32.45-29.41L32.45-29.41L32.45-29.41Q32.45-28.20 33.18-25.60L33.18-25.60L33.18-25.60Q34.94-19.70 35.71-17.36L35.71-17.36L38.45-9.38L38.45-9.38Q40.17-14.47 40.94-16.99L40.94-16.99L40.94-16.99Q44.57-29.08 44.57-30.58L44.57-30.58L44.57-30.58Q44.57-32.08 44.42-32.87L44.42-32.87L44.42-32.87Q44.27-33.65 44.02-34.35L44.02-34.35L44.02-34.35Q43.58-35.34 42.30-36.99L42.30-36.99L54.57-36.99L54.57-36.99Q52.29-34.53 51.42-32.35L51.42-32.35L51.42-32.35Q50.54-30.18 50.10-29.04L50.10-29.04L45.56-16.30L45.56-16.30Q43.87-11.17 43.14-8.68L43.14-8.68L43.14-8.68Q42.70-6.70 42.70-4.47L42.70-4.47L42.70-4.47Q42.70-2.23 43.65 0.04L43.65 0.04L30.10 0L30.10 0Q30.98-1.39 31.15-2.62L31.15-2.62L31.15-2.62Q31.31-3.85 31.31-5.02L31.31-5.02L31.31-5.02Q31.31-6.19 30.94-7.91L30.94-7.91L30.94-7.91Q30.58-9.63 29.96-11.87L29.96-11.87L29.96-11.87Q28.71-16.52 26.81-21.79L26.81-21.79L26.81-21.79Q23.25-12.71 22.52-9.76L22.52-9.76L22.52-9.76Q21.79-6.81 21.79-4.56L21.79-4.56L21.79-4.56Q21.79-2.31 22.78 0.04L22.78 0.04L9.23 0L9.23 0Q10.11-1.39 10.27-2.62L10.27-2.62L10.27-2.62Q10.44-3.85 10.44-5.15L10.44-5.15L10.44-5.15Q10.44-6.45 9.91-8.90L9.91-8.90L9.91-8.90Q9.38-11.35 8.50-14.47L8.50-14.47L8.50-14.47Q7.62-17.58 6.48-21.04L6.48-21.04L6.48-21.04Q5.35-24.50 4.10-27.65L4.10-27.65L4.10-27.65Q1.28-34.79-0.66-36.99L-0.66-36.99L12.85-36.99L12.85-36.99Q12.19-35.38 12.19-33.44L12.19-33.44L12.19-33.44Q12.19-31.49 12.47-30.05L12.47-30.05L12.47-30.05Q12.74-28.60 13.20-26.70L13.20-26.70L13.20-26.70Q13.66-24.79 14.28-22.60L14.28-22.60L17.94-9.74L17.94-9.74Q23.18-23.00 23.77-25.54L23.77-25.54L23.77-25.54Q24.35-28.09 24.35-28.82L24.35-28.82L24.35-28.82Q24.35-33.54 21.94-36.99L21.94-36.99ZM78.52-11.02L78.52-12.12L78.55-20.25L78.55-20.25Q78.55-27.91 78.15-30.25L78.15-30.25L78.15-30.25Q77.75-32.59 77.51-33.53L77.51-33.53L77.51-33.53Q77.27-34.46 76.94-35.27L76.94-35.27L76.25-36.99L87.05-36.99L86.87-35.30L86.87-35.30Q86.65-33.54 86.57-30.18L86.57-30.18L86.43-24.61L86.43-24.61Q86.24-18.20 86.24-12.63L86.24-12.63L86.24-12.63Q86.24-7.07 85.57-3.11L85.57-3.11L85.57-3.11Q84.89 0.84 83.75 3.85L83.75 3.85L83.75 3.85Q82.62 6.85 81.15 9.03L81.15 9.03L81.15 9.03Q79.69 11.21 78.08 12.67L78.08 12.67L78.08 12.67Q75.29 15.31 71.85 16.48L71.85 16.48L71.85 16.48Q71.12 16.19 70.44 15.40L70.44 15.40L70.44 15.40Q69.76 14.61 69.62 13.92L69.62 13.92L69.62 13.92Q72.84 12.27 74.78 8.86L74.78 8.86L74.78 8.86Q77.53 4.03 78.26-5.09L78.26-5.09L78.26-5.09Q74.01 0.73 67.82 0.73L67.82 0.73L67.82 0.73Q63.43 0.73 61.01-2.71L61.01-2.71L61.01-2.71Q58.70-6.04 58.70-11.87L58.70-11.87L58.70-16.81L58.70-16.81Q58.70-18.46 58.67-20.18L58.67-20.18L58.67-23.51L58.67-23.51Q58.59-26.70 58.43-28.47L58.43-28.47L58.43-28.47Q58.26-30.25 58.06-31.44L58.06-31.44L58.06-31.44Q57.86-32.63 57.57-33.56L57.57-33.56L57.57-33.56Q57.28-34.50 56.91-35.30L56.91-35.30L56.10-36.99L67.27-36.99L67.27-36.99Q66.32-31.75 66.32-17.18L66.32-17.18L66.32-17.18Q66.32-11.24 66.94-9.27L66.94-9.27L66.94-9.27Q67.57-7.29 68.50-6.39L68.50-6.39L68.50-6.39Q69.43-5.49 70.90-5.49L70.90-5.49L70.90-5.49Q72.36-5.49 73.48-5.95L73.48-5.95L73.48-5.95Q74.60-6.41 75.51-7.18L75.51-7.18L75.51-7.18Q77.31-8.57 78.52-11.02L78.52-11.02ZM79.69-14.14L79.91-15.01L79.69-14.14ZM111.91-34.06L111.91-34.06Q108.62-34.06 107.17-30.76L107.17-30.76L107.17-30.76Q105.73-27.47 105.73-19.67L105.73-19.67L105.73-19.67Q105.73-2.93 111.91-2.93L111.91-2.93L111.91-2.93Q115.21-2.93 116.66-7.40L116.66-7.40L116.66-7.40Q118.10-11.87 118.10-19.67L118.10-19.67L118.10-19.67Q118.10-27.47 116.66-30.76L116.66-30.76L116.66-30.76Q115.21-34.06 111.91-34.06L111.91-34.06ZM96.50-21.06L96.50-21.06Q96.50-37.72 111.91-37.72L111.91-37.72L111.91-37.72Q127.33-37.72 127.33-21.06L127.33-21.06L127.33-21.06Q127.33-10.95 123.08-5.05L123.08-5.05L123.08-5.05Q118.95 0.73 111.91 0.73L111.91 0.73L111.91 0.73Q104.88 0.73 100.74-5.05L100.74-5.05L100.74-5.05Q96.50-10.95 96.50-21.06L96.50-21.06ZM147.84 0L137.04 0L137.04 0Q138.72-5.79 138.72-19.89L138.72-19.89L138.72-19.89Q138.72-29.92 137.11-33.58L137.11-33.58L137.11-33.58Q136.45-35.08 134.77-36.99L134.77-36.99L147.77-36.99L147.77-36.99Q147.11-34.68 146.70-30.65L146.70-30.65L146.70-30.65Q150.15-34.97 156.30-36.77L156.30-36.77L156.30-36.77Q158.94-37.54 160.14-39.18L160.14-39.18L160.14-39.18Q161.35-36.29 161.35-34.20L161.35-34.20L161.35-34.20Q161.35-32.12 161.13-30.34L161.13-30.34L161.13-30.34Q160.91-28.56 160.47-26.88L160.47-26.88L160.47-26.88Q159.52-23.25 157.95-21.24L157.95-21.24L157.95-21.24Q156.59-28.38 153.74-29.59L153.74-29.59L153.74-29.59Q150.44-31.02 147.29-25.71L147.29-25.71L147.29-25.71Q146.63-24.61 146.19-23.36L146.19-23.36L146.19-23.36Q146.15-22.52 146.15-21.64L146.15-21.64L146.15-21.64Q146.15-20.76 146.15-19.89L146.15-19.89L146.15-19.89Q146.15-5.79 147.84 0L147.84 0ZM176.44-26.37L176.40-16.77L176.40-16.77Q176.40-4.91 177.83 0L177.83 0L167.03 0L167.03 0Q168.05-3.55 168.31-8.39L168.31-8.39L168.31-8.39Q168.86-20.07 168.86-26.51L168.86-26.51L168.86-26.51Q168.86-32.96 168.82-35.17L168.82-35.17L168.82-35.17Q168.79-37.39 168.75-39.62L168.75-39.62L168.75-39.62Q168.53-47.57 168.00-49.64L168.00-49.64L168.00-49.64Q167.47-51.71 167.01-52.64L167.01-52.64L167.01-52.64Q166.55-53.58 165.97-54.35L165.97-54.35L164.76-56.03L178.13-56.03L178.13-56.03Q177.10-52.33 176.93-48.94L176.93-48.94L176.93-48.94Q176.77-45.56 176.68-42.96L176.68-42.96L176.68-42.96Q176.59-40.36 176.51-37.54L176.51-37.54L176.51-37.54Q176.44-32.85 176.44-26.37L176.44-26.37ZM208.48 0L207.97-2.89L207.97-2.89Q203.98 0.73 197.83 0.73L197.83 0.73L197.83 0.73Q192.19 0.73 188.93-2.53L188.93-2.53L188.93-2.53Q185.56-5.90 185.56-12.03L185.56-12.03L185.56-12.03Q185.56-18.16 187.35-22.76L187.35-22.76L187.35-22.76Q189.15-27.36 192.08-30.47L192.08-30.47L192.08-30.47Q197.86-36.62 206.29-36.95L206.29-36.95L206.29-36.95Q205.99-48.23 205.54-49.90L205.54-49.90L205.54-49.90Q205.08-51.56 204.62-52.53L204.62-52.53L204.62-52.53Q204.16-53.50 203.58-54.31L203.58-54.31L202.33-56.03L215.70-56.03L215.70-56.03Q214.67-52.33 214.51-48.85L214.51-48.85L214.51-48.85Q214.34-45.37 214.27-42.74L214.27-42.74L214.27-42.74Q214.20-40.10 214.16-37.21L214.16-37.21L214.16-37.21Q214.05-32.37 214.05-27.59L214.05-27.59L214.05-27.59Q214.05-22.81 214.07-20.36L214.07-20.36L214.07-20.36Q214.09-17.91 214.16-15.71L214.16-15.71L214.16-15.71Q214.34-7.47 214.78-5.91L214.78-5.91L214.78-5.91Q215.22-4.36 215.68-3.42L215.68-3.42L215.68-3.42Q216.14-2.49 216.72-1.68L216.72-1.68L217.97 0L208.48 0ZM206.34-13.44L206.34-13.44L206.34-13.44Q206.51-19.08 206.51-24.01L206.51-24.01L206.51-24.01Q206.51-28.93 206.40-33.40L206.40-33.40L206.40-33.40Q201.09-32.59 197.90-27.14L197.90-27.14L197.90-27.14Q194.71-21.72 194.71-13.48L194.71-13.48L194.71-13.48Q194.71-8.61 195.47-6.67L195.47-6.67L195.47-6.67Q196.22-4.72 197.26-3.83L197.26-3.83L197.26-3.83Q198.30-2.93 199.79-2.93L199.79-2.93L199.79-2.93Q201.27-2.93 202.39-3.53L202.39-3.53L202.39-3.53Q203.50-4.14 204.35-5.31L204.35-5.31L204.35-5.31Q206.18-7.80 206.34-13.44Z" fill="url(#editing-sticker-gradient)" stroke="#000" stroke-width="2"/></g></g><style>text {
  font-size: 64px;
  font-family: Arial Black;
  dominant-baseline: central;
  text-anchor: middle;
}</style></svg>