<svg width="21" height="20" viewBox="0 0 21 20" fill="none" xmlns="http://www.w3.org/2000/svg">
<path d="M12 9.12042e-07C13.83 -0.000872552 15.605 0.625667 17.0289 1.77513C18.4528 2.92458 19.4396 4.52748 19.8247 6.31647C20.2098 8.10546 19.9699 9.97241 19.1451 11.6059C18.3202 13.2395 16.9603 14.5408 15.292 15.293C14.7588 16.4719 13.9475 17.5039 12.9279 18.3004C11.9082 19.097 10.7106 19.6343 9.43766 19.8663C8.16473 20.0984 6.85452 20.0182 5.61939 19.6327C4.38426 19.2472 3.26106 18.5678 2.34614 17.6529C1.43121 16.738 0.751858 15.6148 0.36634 14.3796C-0.0191778 13.1445 -0.0993549 11.8343 0.132685 10.5614C0.364724 9.28844 0.902056 8.0908 1.6986 7.07114C2.49514 6.05148 3.52711 5.24024 4.70603 4.707C5.34017 3.30389 6.36561 2.1135 7.65937 1.27861C8.95313 0.443714 10.4603 -0.000237065 12 9.12042e-07ZM9.00002 7H7.00003V8C6.35014 7.99842 5.72518 8.24997 5.25761 8.70134C4.79004 9.15271 4.51662 9.76842 4.49529 10.418C4.47396 11.0675 4.70641 11.6998 5.14337 12.1809C5.58032 12.6619 6.18744 12.9539 6.83603 12.995L7.00003 13H9.00002L9.09002 13.008C9.20531 13.0289 9.3096 13.0896 9.3847 13.1795C9.4598 13.2694 9.50094 13.3828 9.50094 13.5C9.50094 13.6172 9.4598 13.7306 9.3847 13.8205C9.3096 13.9104 9.20531 13.9711 9.09002 13.992L9.00002 14H5.00003V16H7.00003V17H9.00002V16C9.64991 16.0016 10.2749 15.75 10.7424 15.2987C11.21 14.8473 11.4834 14.2316 11.5048 13.582C11.5261 12.9325 11.2936 12.3002 10.8567 11.8191C10.4197 11.3381 9.81261 11.0461 9.16402 11.005L9.00002 11H7.00003L6.91003 10.992C6.79474 10.9711 6.69045 10.9104 6.61535 10.8205C6.54025 10.7306 6.49911 10.6172 6.49911 10.5C6.49911 10.3828 6.54025 10.2694 6.61535 10.1795C6.69045 10.0896 6.79474 10.0289 6.91003 10.008L7.00003 10H11V8H9.00002V7ZM12 2C11.1527 1.99901 10.3148 2.17794 9.54185 2.52496C8.76885 2.87198 8.07835 3.37918 7.51603 4.013C8.64629 3.94439 9.77824 4.1165 10.837 4.51795C11.8958 4.9194 12.8573 5.54105 13.658 6.34178C14.4586 7.14252 15.0801 8.1041 15.4815 9.16293C15.8828 10.2218 16.0548 11.3537 15.986 12.484C16.8952 11.6756 17.5372 10.6099 17.8268 9.42831C18.1165 8.24668 18.04 7.00491 17.6077 5.86772C17.1753 4.73053 16.4075 3.75164 15.406 3.06088C14.4045 2.37013 13.2166 2.00014 12 2Z" fill="#198754"/>
</svg>
