<svg width="20" height="20" viewBox="0 0 20 20" fill="none" xmlns="http://www.w3.org/2000/svg">
<path d="M13.8889 3.75V3.77734C13.7049 3.76172 13.5208 3.75 13.3333 3.75H8.88889C8.31597 3.75 7.76042 3.83203 7.22917 3.98438C7.22569 3.90625 7.22222 3.82812 7.22222 3.75C7.22222 1.67969 8.71528 0 10.5556 0C12.3958 0 13.8889 1.67969 13.8889 3.75ZM13.3333 5C13.4549 5 13.5764 5.00391 13.6944 5.01172C13.8403 5.02344 13.9861 5.03906 14.1319 5.0625C14.7431 4.26172 15.6528 3.75 16.6667 3.75H17.7778L17.125 6.68359C17.6736 7.26172 18.1215 7.96484 18.4271 8.75H18.8889C19.5035 8.75 20 9.30859 20 10V13.75C20 14.4414 19.5035 15 18.8889 15H17.7778C17.4618 15.4727 17.0868 15.8945 16.6667 16.25V18.75C16.6667 19.4414 16.1701 20 15.5556 20H14.4444C13.8299 20 13.3333 19.4414 13.3333 18.75V17.5H8.88889V18.75C8.88889 19.4414 8.39236 20 7.77778 20H6.66667C6.05208 20 5.55556 19.4414 5.55556 18.75V16.25C4.34375 15.2266 3.51736 13.6602 3.36111 11.875H2.36111C1.05556 11.875 0 10.6875 0 9.21875C0 7.75 1.05556 6.5625 2.36111 6.5625H2.5C2.96181 6.5625 3.33333 6.98047 3.33333 7.5C3.33333 8.01953 2.96181 8.4375 2.5 8.4375H2.36111C1.97917 8.4375 1.66667 8.78906 1.66667 9.21875C1.66667 9.64844 1.97917 10 2.36111 10H3.44444C3.86458 7.66406 5.44792 5.80078 7.48264 5.20312C7.93056 5.07031 8.40278 5 8.88889 5H13.3333ZM15.5556 10.3125C15.5556 9.79297 15.184 9.375 14.7222 9.375C14.2604 9.375 13.8889 9.79297 13.8889 10.3125C13.8889 10.832 14.2604 11.25 14.7222 11.25C15.184 11.25 15.5556 10.832 15.5556 10.3125Z" fill="#198754"/>
</svg>
